gui_paths_subject3_squats1_v3
version=1
nRows=17
nColumns=56
inDegrees=no
endheader
time	pelvis_tilt	pelvis_list	pelvis_rotation	pelvis_tx	pelvis_ty	pelvis_tz	hip_flexion_r	hip_adduction_r	hip_rotation_r	knee_angle_r	ankle_angle_r	subtalar_angle_r	mtp_angle_r	hip_flexion_l	hip_adduction_l	hip_rotation_l	knee_angle_l	ankle_angle_l	subtalar_angle_l	mtp_angle_l	lumbar_extension	lumbar_bending	lumbar_rotation	arm_flex_r	arm_add_r	arm_rot_r	elbow_flex_r	pro_sup_r	wrist_flex_r	wrist_dev_r	arm_flex_l	arm_add_l	arm_rot_l	elbow_flex_l	pro_sup_l	wrist_flex_l	wrist_dev_l	knee_angle_r_beta	knee_angle_l_beta	/forceset/M0_r/activation	/forceset/M1_r/activation	/forceset/M2_r/activation	/forceset/M3_r/activation	/forceset/M4_r/activation	/forceset/M5_r/activation	/forceset/M6_r/activation	/forceset/M7_r/activation	/forceset/M0_l/activation	/forceset/M1_l/activation	/forceset/M2_l/activation	/forceset/M3_l/activation	/forceset/M4_l/activation	/forceset/M5_l/activation	/forceset/M6_l/activation	/forceset/M7_l/activation
3.50000000	-0.71331404	-0.01178027	-0.07686789	-0.35890423	0.58617497	-0.62432172	1.85684246	-0.26864334	-0.03398352	1.68141771	0.45389402	-0.01231940	0.00000720	1.92277168	-0.39528754	0.07460395	1.70710952	0.45626673	0.00345376	-0.00001527	-0.07272320	0.03710189	-0.05179487	0.97785643	-0.47366349	0.68885745	2.44505716	1.01796966	0.00045376	-0.00005525	1.03503604	-0.62918766	0.69839932	2.47199553	1.02138396	0.00085960	0.00030937	1.68141771	1.70710952	0.00000000	0.00000012	0.01533508	0.49483846	0.51990087	0.00735375	0.00000000	0.37692742	0.09027072	0.00000000	0.00000000	0.38915290	1.00000000	0.00000000	0.16376899	0.12823951
3.50989011	-0.71475068	-0.01080269	-0.07707713	-0.35883832	0.58731062	-0.62455609	1.85606822	-0.26795953	-0.03348673	1.67756608	0.45280160	-0.01231940	0.00000720	1.92073122	-0.39364065	0.07339882	1.70364150	0.45533572	0.00345376	-0.00001527	-0.06918349	0.03651026	-0.05196652	0.97826883	-0.47593450	0.69187979	2.44586302	1.01797609	0.00045376	-0.00005525	1.03494873	-0.63369346	0.70226181	2.47220624	1.02137841	0.00085960	0.00030937	1.67756608	1.70364150	0.00000000	0.00000017	0.01641754	0.48511882	0.50867576	0.00387086	0.00000000	0.37343690	0.09303177	0.00000000	0.00000000	0.38048956	1.00000000	0.00000000	0.17659311	0.14792347
3.51978022	-0.71645941	-0.00994057	-0.07728182	-0.35881094	0.58835044	-0.62477093	1.85567619	-0.26762163	-0.03337661	1.67382513	0.45164957	-0.01231940	0.00000720	1.91927425	-0.39203949	0.07238824	1.70037195	0.45428810	0.00345376	-0.00001527	-0.06536822	0.03589049	-0.05157198	0.97834091	-0.47892915	0.69398152	2.44693089	1.01798251	0.00045376	-0.00005525	1.03524410	-0.63821294	0.70730315	2.47176367	1.02137283	0.00085960	0.00030937	1.67382513	1.70037195	0.00000000	0.00000000	0.01653739	0.47581556	0.50130748	0.00000000	0.00098512	0.37095127	0.09550884	0.00000000	0.00000000	0.37396427	1.00000000	0.00000000	0.18628338	0.16390384
3.52967033	-0.71810435	-0.00946985	-0.07752061	-0.35881378	0.58932145	-0.62496321	1.85520571	-0.26744120	-0.03374865	1.67028401	0.45051569	-0.01231940	0.00000720	1.91815605	-0.39077744	0.07136518	1.69728196	0.45364603	0.00345376	-0.00001527	-0.06175144	0.03558501	-0.05094895	0.97832859	-0.48203881	0.69534002	2.44798058	1.01798891	0.00045376	-0.00005525	1.03565055	-0.64208666	0.71249892	2.47081425	1.02136721	0.00085960	0.00030937	1.67028401	1.69728196	0.00000000	0.00000000	0.01538979	0.46061885	0.50854590	0.00000000	0.01386966	0.38126772	0.09745141	0.00000000	0.00000000	0.36929758	1.00000000	0.00000000	0.19295324	0.17598434
3.53956044	-0.71940468	-0.00931591	-0.07785264	-0.35884469	0.59025072	-0.62512826	1.85440287	-0.26720664	-0.03438266	1.66701773	0.44964734	-0.01231940	0.00000720	1.91708979	-0.39008644	0.07036684	1.69446751	0.45336502	0.00345376	-0.00001527	-0.05877049	0.03558575	-0.05046537	0.97861194	-0.48464434	0.69709299	2.44876070	1.01799530	0.00045376	-0.00005525	1.03583582	-0.64510401	0.71673614	2.46974410	1.02136155	0.00085960	0.00030937	1.66701773	1.69446751	0.00000000	0.00000000	0.01356888	0.44508317	0.52059603	0.00000000	0.02895977	0.39378882	0.09864474	0.00000000	0.00000000	0.36619773	1.00000000	0.00000000	0.19677891	0.18408394
3.54945055	-0.72066848	-0.00895911	-0.07831785	-0.35890916	0.59111321	-0.62526702	1.85376586	-0.26689774	-0.03486932	1.66396994	0.44926474	-0.01231940	0.00000720	1.91614922	-0.39002988	0.06927740	1.69190718	0.45300975	0.00345376	-0.00001527	-0.05601825	0.03543416	-0.05028188	0.97907646	-0.48632289	0.69966192	2.44916235	1.01800168	0.00045376	-0.00005525	1.03539011	-0.64786932	0.71965124	2.46906275	1.02135586	0.00085960	0.00030937	1.66396994	1.69190718	0.00000000	0.00000000	0.01120662	0.42921947	0.53715711	0.00000000	0.04615469	0.40837488	0.09897164	0.00000000	0.00000000	0.36440010	1.00000000	0.00000000	0.19801413	0.18832232
3.55934066	-0.72243388	-0.00794162	-0.07883831	-0.35901516	0.59185931	-0.62539038	1.85403050	-0.26670432	-0.03495778	1.66103443	0.44929275	-0.01231940	0.00000720	1.91558629	-0.39049049	0.06757015	1.68936746	0.45245217	0.00345376	-0.00001527	-0.05271191	0.03468108	-0.05042894	0.97930774	-0.48699838	0.70226690	2.44909733	1.01800803	0.00045376	-0.00005525	1.03411563	-0.65100007	0.72171281	2.46896914	1.02135013	0.00085960	0.00030937	1.66103443	1.68936746	0.00000000	0.00000000	0.00841342	0.41321645	0.55758859	0.00000000	0.06504548	0.42460651	0.09843573	0.00000000	0.00000000	0.36368961	1.00000000	0.00000000	0.19699516	0.18907076
3.56923077	-0.72461310	-0.00651115	-0.07925339	-0.35916343	0.59249113	-0.62551649	1.85508440	-0.26682450	-0.03488949	1.65824336	0.44930294	-0.01231940	0.00000720	1.91539092	-0.39116419	0.06512033	1.68674741	0.45193410	0.00345376	-0.00001527	-0.04895557	0.03355698	-0.05086090	0.97935579	-0.48707228	0.70432715	2.44859691	1.01801437	0.00045376	-0.00005525	1.03231077	-0.65455356	0.72368406	2.46921720	1.02134436	0.00085960	0.00030937	1.65824336	1.68674741	0.00000000	0.00000000	0.00528697	0.39738036	0.58102211	0.00000000	0.08502420	0.44189764	0.09714028	0.00000000	0.00000000	0.36390664	1.00000000	0.00000000	0.19411612	0.18691019
3.57912088	-0.72650266	-0.00535769	-0.07935057	-0.35934329	0.59306197	-0.62568281	1.85605601	-0.26746355	-0.03508592	1.65581419	0.44878414	-0.01231940	0.00000720	1.91523439	-0.39149069	0.06268541	1.68429903	0.45150967	0.00345376	-0.00001527	-0.04575109	0.03282127	-0.05161779	0.97980263	-0.48707210	0.70632501	2.44791632	1.01802070	0.00045376	-0.00005525	1.03039135	-0.65826082	0.72578991	2.46950315	1.02133857	0.00085960	0.00030937	1.65581419	1.68429903	0.00000000	0.00000000	0.00194550	0.38214882	0.60632211	0.00000000	0.10525926	0.45947794	0.09524282	0.00000000	0.00000000	0.36493754	1.00000000	0.00000000	0.18978351	0.18250777
3.58901099	-0.72766922	-0.00452916	-0.07888809	-0.35953731	0.59359792	-0.62593171	1.85659248	-0.26890030	-0.03532831	1.65395399	0.44764813	-0.01231940	0.00000720	1.91472022	-0.39097106	0.06069707	1.68230281	0.45094866	0.00345376	-0.00001527	-0.04364058	0.03256252	-0.05290204	0.98086177	-0.48718021	0.70884942	2.44731148	1.01802700	0.00045376	-0.00005525	1.02844063	-0.66168526	0.72761914	2.46964193	1.02133273	0.00085960	0.00030937	1.65395399	1.68230281	0.00181476	0.00000000	0.00000000	0.36614555	0.63721471	0.00000000	0.12816853	0.47927929	0.09289134	0.00000000	0.00000000	0.36667710	1.00000000	0.00000000	0.18439685	0.17652552
3.59890110	-0.72824425	-0.00332164	-0.07800885	-0.35972931	0.59408092	-0.62622881	1.85707179	-0.27093133	-0.03493958	1.65258813	0.44646033	-0.01231940	0.00000720	1.91359181	-0.39001718	0.05846280	1.68073174	0.45033133	0.00345376	-0.00001527	-0.04226022	0.03184153	-0.05444936	0.98188128	-0.48739424	0.71144749	2.44689014	1.01803330	0.00045376	-0.00005525	1.02651768	-0.66415713	0.72898830	2.46927478	1.02132686	0.00085960	0.00030937	1.65258813	1.68073174	0.00601967	0.00000000	0.00000000	0.34903038	0.67449725	0.00000000	0.15434038	0.50179586	0.09019911	0.00000000	0.00000000	0.36900802	1.00000000	0.00000000	0.17832806	0.16955790
3.60879121	-0.72840441	-0.00163678	-0.07753993	-0.35991236	0.59450564	-0.62644310	1.85745109	-0.27247433	-0.03411270	1.65137105	0.44583585	-0.01231940	0.00000720	1.91201222	-0.38994735	0.05565799	1.67942572	0.45016206	0.00345376	-0.00001527	-0.04128212	0.03025505	-0.05513385	0.98213504	-0.48790547	0.71303570	2.44672906	1.01803959	0.00045376	-0.00005525	1.02489502	-0.66527924	0.73022303	2.46804391	1.02132096	0.00085960	0.00030937	1.65137105	1.67942572	0.01007773	0.00000000	0.00000000	0.33361692	0.71056603	0.00000000	0.17877168	0.52294459	0.08726396	0.00000000	0.00000000	0.37181856	1.00000000	0.00000000	0.17189234	0.16209467
3.61868132	-0.72825144	-0.00029751	-0.07806954	-0.36009490	0.59487942	-0.62650319	1.85729201	-0.27277057	-0.03382271	1.65009264	0.44565568	-0.01231940	0.00000720	1.91059125	-0.39133604	0.05319963	1.67835578	0.45055153	0.00345376	-0.00001527	-0.04070470	0.02869933	-0.05428366	0.98168070	-0.48885969	0.71323779	2.44683148	1.01804585	0.00045376	-0.00005525	1.02353039	-0.66562976	0.73142335	2.46629736	1.02131503	0.00085960	0.00030937	1.65009264	1.67835578	0.01396432	0.00000000	0.00000000	0.31989464	0.74524295	0.00000000	0.20153984	0.54295107	0.08418823	0.00000000	0.00000000	0.37502404	1.00000000	0.00000000	0.16533754	0.15452993
3.62857143	-0.72805914	0.00026947	-0.07908657	-0.36029173	0.59518240	-0.62649716	1.85679638	-0.27247703	-0.03432565	1.64888601	0.44539263	-0.01231940	0.00000720	1.90983812	-0.39319645	0.05182279	1.67759228	0.45087356	0.00345376	-0.00001527	-0.04030971	0.02799022	-0.05279791	0.98111214	-0.48997054	0.71278304	2.44699171	1.01805211	0.00045376	-0.00005525	1.02183417	-0.66627854	0.73215750	2.46497418	1.02130906	0.00085960	0.00030937	1.64888601	1.67759228	0.01772038	0.00000000	0.00000000	0.30769522	0.77880044	0.00000000	0.22304163	0.56234213	0.08109037	0.00000000	0.00000000	0.37857589	1.00000000	0.00000000	0.15884180	0.14717801
3.63846154	-0.72803491	0.00047501	-0.07981401	-0.36050538	0.59539486	-0.62654142	1.85651616	-0.27258566	-0.03503542	1.64793933	0.44495262	-0.01231940	0.00000720	1.90968884	-0.39449039	0.05119161	1.67717129	0.45062331	0.00345376	-0.00001527	-0.03980199	0.02795978	-0.05192373	0.98085160	-0.49076133	0.71256453	2.44694830	1.01805835	0.00045376	-0.00005525	1.01934240	-0.66755223	0.73203371	2.46457786	1.02130306	0.00085960	0.00030937	1.64793933	1.67717129	0.02142051	0.00000000	0.00000000	0.29676677	0.81177377	0.00000000	0.24383625	0.58178443	0.07810263	0.00000000	0.00000000	0.38245287	1.00000000	0.00000000	0.15253622	0.14030926
3.64835165	-0.72803927	0.00090283	-0.08010521	-0.36072370	0.59553005	-0.62664425	1.85658960	-0.27320463	-0.03535293	1.64733103	0.44452528	-0.01231940	0.00000720	1.90957461	-0.39524768	0.05043953	1.67697808	0.45009057	0.00345376	-0.00001527	-0.03923729	0.02789837	-0.05185876	0.98080053	-0.49105080	0.71266498	2.44663966	1.01806458	0.00045376	-0.00005525	1.01631541	-0.66895161	0.73129211	2.46472587	1.02129703	0.00085960	0.00030937	1.64733103	1.67697808	0.02517683	0.00000000	0.00000000	0.28674027	0.84501242	0.00000000	0.26468897	0.60211010	0.07538560	0.00000000	0.00000000	0.38667611	1.00000000	0.00000000	0.14648915	0.13412886
3.65824176	-0.72786307	0.00182467	-0.08014961	-0.36093456	0.59561220	-0.62675659	1.85690009	-0.27396928	-0.03500764	1.64707372	0.44411250	-0.01231940	0.00000720	1.90899393	-0.39586841	0.04898608	1.67680386	0.44984508	0.00345376	-0.00001527	-0.03878306	0.02727435	-0.05208104	0.98052924	-0.49105566	0.71250861	2.44620908	1.01807079	0.00045376	-0.00005525	1.01336978	-0.67012182	0.73064854	2.46479118	1.02129096	0.00085960	0.00030937	1.64707372	1.67680386	0.02913031	0.00000000	0.00000000	0.27718378	0.87955042	0.00000000	0.28646392	0.62420525	0.07311521	0.00000000	0.00000000	0.39131561	1.00000000	0.00000000	0.14070227	0.12877394
